<?xml version="1.0" encoding="utf-8"?>
<!-- Generator: Adobe Illustrator 27.9.1, SVG Export Plug-In . SVG Version: 6.00 Build 0)  -->
<svg version="1.1" id="Layer_1" xmlns="http://www.w3.org/2000/svg" xmlns:xlink="http://www.w3.org/1999/xlink" x="0px" y="0px"
	 viewBox="0 0 20 20" style="enable-background:new 0 0 20 20;" xml:space="preserve">
<path d="M18,10c0,4.5-3.6,8-8,8s-8-3.6-8-8c0-4.5,3.6-8,8-8S18,5.5,18,10 M19,10c0-5-4-9-9-9c-5,0-9,4-9,9c0,5,4,9,9,9
	C15,19,19,15,19,10 M14.4,12.4c0,1.2-0.8,1.9-2,1.9c-1.2,0-1.9-0.8-1.9-1.8c0-1.2,0.9-1.9,1.9-1.9C13.5,10.6,14.4,11.3,14.4,12.4
	 M14.3,7.4c0,1-0.8,1.7-1.8,1.7c-1.1,0-1.8-0.7-1.8-1.6c0-1.1,0.8-1.6,1.8-1.6C13.4,5.9,14.3,6.6,14.3,7.4 M16.4,12.6
	c0-2-1.4-2.6-2.1-2.9C15,9.5,16.3,9,16.3,7.5c0-2-1.7-3-3.7-3c-2.2,0-3.8,1.1-3.8,3c0,1.6,1.5,2.2,2,2.4C10,10,8.6,10.5,8.6,12.5
	c0,2.3,1.8,3.2,3.9,3.2C14.3,15.7,16.4,14.8,16.4,12.6 M7.4,15.7V4.4H5.5C5.2,4.8,4.2,5.8,3.1,6.2v1.5c0.8-0.2,2-0.9,2.3-1.3v9.3
	H7.4z"/>
</svg>
