<?xml version="1.0" encoding="utf-8"?>
<!-- Generator: Adobe Illustrator 27.9.1, SVG Export Plug-In . SVG Version: 6.00 Build 0)  -->
<svg version="1.1" id="Layer_1" xmlns="http://www.w3.org/2000/svg" xmlns:xlink="http://www.w3.org/1999/xlink" x="0px" y="0px"
	 viewBox="0 0 20 20" style="enable-background:new 0 0 20 20;" xml:space="preserve">
<g>
	<path d="M10,1.9c-4.5,0-8.1,3.6-8.1,8.1c0,4.5,3.6,8.1,8.1,8.1s8.1-3.6,8.1-8.1C18.1,5.5,14.5,1.9,10,1.9 M10,19c-5,0-9-4-9-9
		c0-5,4-9,9-9s9,4,9,9C19,15,15,19,10,19"/>
	<path d="M5.9,10.6h2.4l-0.6-2c-0.3-1-0.5-2-0.5-2h0c0,0-0.3,1.2-0.6,2L5.9,10.6z M6.3,5.3H8l3.1,8.5H9.4l-0.7-2H5.5l-0.7,2H3.3
		L6.3,5.3z"/>
	<rect x="11.6" y="5.3" width="1.5" height="8.5"/>
	<rect x="13.9" y="5.3" width="1.5" height="8.5"/>
</g>
</svg>
