<?xml version="1.0" encoding="utf-8"?>
<!-- Generator: Adobe Illustrator 27.9.1, SVG Export Plug-In . SVG Version: 6.00 Build 0)  -->
<svg version="1.1" id="Layer_1" xmlns="http://www.w3.org/2000/svg" xmlns:xlink="http://www.w3.org/1999/xlink" x="0px" y="0px"
	 viewBox="0 0 20 20" style="enable-background:new 0 0 20 20;" xml:space="preserve">
<path d="M18,10c0,4.5-3.6,8-8,8c-4.5,0-8-3.6-8-8c0-4.5,3.6-8,8-8C14.5,2,18,5.5,18,10 M19,10c0-5-4-9-9-9c-5,0-9,4-9,9c0,5,4,9,9,9
	C15,19,19,15,19,10 M14.6,12.1c0,1.6-0.9,2.2-1.9,2.2c-1.1,0-1.8-0.8-1.8-2.2c0-1.5,1-2.1,1.7-2.1C14,9.9,14.6,10.7,14.6,12.1
	 M16.5,12c0-2.3-1.5-3.8-3.9-3.5c-0.9,0.1-1.4,0.4-1.7,0.8c0.1-0.8,0.3-3.2,1.7-3.4c1.5-0.2,1.6,0.9,1.8,1.4h2
	c0-0.8-0.6-3.2-3.7-2.8c-3.2,0.4-4,3.9-3.6,7.6c0.2,1.9,1.4,3.6,3.7,3.6C14.3,15.7,16.5,14.7,16.5,12 M7.6,15.7V4.4H5.7
	C5.4,4.8,4.4,5.8,3.3,6.2v1.5c0.8-0.2,2-0.9,2.3-1.3v9.3H7.6z"/>
</svg>
