<?xml version="1.0" encoding="utf-8"?>
<!-- Generator: Adobe Illustrator 27.9.1, SVG Export Plug-In . SVG Version: 6.00 Build 0)  -->
<svg version="1.1" id="Layer_1" xmlns="http://www.w3.org/2000/svg" xmlns:xlink="http://www.w3.org/1999/xlink" x="0px" y="0px"
	 viewBox="0 0 20 20" style="enable-background:new 0 0 20 20;" xml:space="preserve">
<path d="M18,10c0,4.5-3.6,8-8,8s-8-3.6-8-8c0-4.5,3.6-8,8-8S18,5.5,18,10 M19,10c0-5-4-9-9-9s-9,4-9,9c0,5,4,9,9,9S19,15,19,10
	 M7.8,15.9V4.6H5.8C5.6,5,4.6,5.9,3.5,6.3v1.5c0.8-0.2,2-0.9,2.3-1.3v9.3H7.8z M16.2,12.1c0.1-1.8-0.8-3.9-3.7-3.7
	c-1.1,0.1-1.5,0.4-2,0.8l0.2-3h4.8V4.8H9l-0.3,6.4h2c0.1-0.4,0.6-1.3,1.6-1.3c1.2,0,1.8,1.1,1.8,2.3c0,1.2-0.6,2.3-1.7,2.3
	c-1.6,0-1.8-1-1.8-1.5H8.7c0,1.7,1.3,3.1,3.7,3C14.4,15.8,16,14.5,16.2,12.1"/>
</svg>
