<?xml version="1.0" encoding="utf-8"?>
<!-- Generator: Adobe Illustrator 27.9.1, SVG Export Plug-In . SVG Version: 6.00 Build 0)  -->
<svg version="1.1" id="Layer_1" xmlns="http://www.w3.org/2000/svg" xmlns:xlink="http://www.w3.org/1999/xlink" x="0px" y="0px"
	 viewBox="0 0 20 20" style="enable-background:new 0 0 20 20;" xml:space="preserve">
<path d="M15.8,15.5v-1.3h-5.7c0.1-1,1.2-1.6,2.8-2.8c1-0.7,2.4-1.8,2.7-3c0.5-2.2-0.9-3.9-3.4-3.9c-3.5,0-3.8,2.5-3.8,3.2h2
	c0-0.6,0.3-1.8,1.8-1.8c1.3,0,2.3,1.5,1.2,2.9c-0.7,0.9-2.7,2.1-3.6,2.9c-1.4,1.3-1.5,2.3-1.5,3.9h7.4C14.2,17.2,12.2,18,10,18
	c-4.5,0-8-3.6-8-8s3.6-8,8-8s8,3.6,8,8C18,12.2,17.2,14.1,15.8,15.5 M19,10c0-5-4-9-9-9c-5,0-9,4-9,9s4,9,9,9C15,19,19,15,19,10
	 M7.4,15.9V4.6H5.5C5.2,5,4.2,5.9,3.1,6.3v1.5c0.8-0.2,2-0.9,2.3-1.3v9.3H7.4z"/>
</svg>
